<svg width="85" height="146" viewBox="0 0 85 146" fill="none" xmlns="http://www.w3.org/2000/svg">
<mask id="mask0_79_1341" style="mask-type:alpha" maskUnits="userSpaceOnUse" x="20" y="50" width="45" height="46">
<rect x="20" y="50.5" width="45" height="45" fill="#D9D9D9"/>
</mask>
<g mask="url(#mask0_79_1341)">
<path d="M31.2354 88C29.1729 88 27.4072 87.2656 25.9385 85.7969C24.4697 84.3281 23.7354 82.5625 23.7354 80.5V65.5C23.7354 63.4375 24.4697 61.6719 25.9385 60.2031C27.4072 58.7344 29.1729 58 31.2354 58H53.7354C55.7979 58 57.5635 58.7344 59.0322 60.2031C60.501 61.6719 61.2354 63.4375 61.2354 65.5V80.5C61.2354 82.5625 60.501 84.3281 59.0322 85.7969C57.5635 87.2656 55.7979 88 53.7354 88H31.2354ZM31.2354 65.5H53.7354C54.4229 65.5 55.0791 65.5781 55.7041 65.7344C56.3291 65.8906 56.9229 66.1406 57.4854 66.4844V65.5C57.4854 64.4688 57.1182 63.5859 56.3838 62.8516C55.6494 62.1172 54.7666 61.75 53.7354 61.75H31.2354C30.2041 61.75 29.3213 62.1172 28.5869 62.8516C27.8525 63.5859 27.4854 64.4688 27.4854 65.5V66.4844C28.0479 66.1406 28.6416 65.8906 29.2666 65.7344C29.8916 65.5781 30.5479 65.5 31.2354 65.5ZM27.7666 71.5938L48.626 76.6562C48.9072 76.7188 49.1885 76.7188 49.4697 76.6562C49.751 76.5938 50.0166 76.4688 50.2666 76.2812L56.7822 70.8438C56.4385 70.375 56.001 69.9922 55.4697 69.6953C54.9385 69.3984 54.3604 69.25 53.7354 69.25H31.2354C30.4229 69.25 29.7119 69.4609 29.1025 69.8828C28.4932 70.3047 28.0479 70.875 27.7666 71.5938Z" fill="#F8FAF9"/>
</g>
<circle cx="42.5" cy="72.5" r="32" stroke="#D4D2E3"/>
</svg>
